<svg width="20" height="20" viewBox="0 0 20 20" fill="none" xmlns="http://www.w3.org/2000/svg">
  <path d="M8.33369 19.9999C9.84249 19.9999 11.105 18.9248 11.3949 17.4999H5.27124C5.56238 18.9248 6.82368 19.9999 8.33369 19.9999Z" fill="#051F61" />
  <path d="M14.6464 12.0801C14.625 12.0801 14.604 12.0838 14.5826 12.0838C10.9064 12.0838 7.9163 9.09245 7.9163 5.41751C7.9163 3.97371 8.38261 2.63887 9.16631 1.54633V0.833744C9.16631 0.372621 8.79368 0 8.33378 0C7.87388 0 7.50004 0.372621 7.50004 0.833744V1.73371C4.67745 2.1399 2.50001 4.56759 2.50001 7.50004V9.82366C2.50001 11.4725 1.77766 13.0289 0.509951 14.1013C0.186158 14.3787 0 14.7825 0 15.2088C0 16.0127 0.65369 16.6676 1.45875 16.6676H15.2088C16.0127 16.6676 16.6676 16.0139 16.6676 15.2088C16.6676 14.7825 16.4814 14.3787 16.15 14.0949C15.4914 13.5389 14.9851 12.8477 14.6464 12.0801Z" fill="#051F61" />
  <path d="M14.5838 0C11.5976 0 9.16748 2.43013 9.16748 5.41629C9.16748 8.40245 11.5976 10.8326 14.5838 10.8326C17.5699 10.8326 20.0001 8.40367 20.0001 5.41629C20.0001 2.42891 17.5699 0 14.5838 0ZM15.4163 7.2913C15.4163 7.63615 15.1361 7.9163 14.7913 7.9163C14.4461 7.9163 14.1663 7.63615 14.1663 7.2913V4.58254H13.75C13.4052 4.58254 13.125 4.30239 13.125 3.95754C13.125 3.61238 13.4052 3.33254 13.75 3.33254H14.7913C15.1361 3.33254 15.4163 3.61238 15.4163 3.95754V7.2913Z" fill="#EB5757" />
</svg>
  