<svg width="18" height="18" viewBox="0 0 18 18" fill="none" xmlns="http://www.w3.org/2000/svg">
  <g clip-path="url(#clip0_7_35)">
    <path d="M10.1816 3.71228H1.96937C0.886214 3.71228 0 4.59849 0 5.68165V12.3184C0 13.4016 0.886214 14.2878 1.96937 14.2878H10.1816C11.2648 14.2878 12.151 13.4016 12.151 12.3184V5.68165C12.151 4.5788 11.2648 3.71228 10.1816 3.71228Z" fill="#BB6BD9" />
    <path d="M16.5427 4.79539C16.4245 4.81509 16.3064 4.87417 16.2079 4.93325L13.1357 6.70568V11.2746L16.2276 13.047C16.7987 13.3818 17.5077 13.1849 17.8425 12.6138C17.9409 12.4365 18 12.2396 18 12.023V5.93762C18 5.20896 17.3107 4.61815 16.5427 4.79539Z" fill="#BB6BD9" />
  </g>
  <defs>
    <clipPath id="clip0_7_35">
      <rect width="18" height="18" fill="white" />
    </clipPath>
  </defs>
</svg>
  