<svg width="17" height="20" viewBox="0 0 17 20" fill="none" xmlns="http://www.w3.org/2000/svg">
  <path d="M14.6875 2.5H11.25V1.875C11.25 0.839453 10.4105 0 9.375 0H6.875C5.83945 0 5 0.839453 5 1.875V2.5H1.5625C0.69957 2.5 0 3.19957 0 4.0625V5.3125C0 5.6577 0.279805 5.9375 0.625 5.9375H15.625C15.9702 5.9375 16.25 5.6577 16.25 5.3125V4.0625C16.25 3.19957 15.5504 2.5 14.6875 2.5ZM6.25 1.875C6.25 1.53047 6.53047 1.25 6.875 1.25H9.375C9.71953 1.25 10 1.53047 10 1.875V2.5H6.25V1.875Z" fill="#757897" />
  <path d="M1.18608 7.1875C1.07456 7.1875 0.985694 7.2807 0.991006 7.39211L1.50663 18.2141C1.55429 19.2156 2.37694 20 3.37929 20H12.8707C13.873 20 14.6957 19.2156 14.7434 18.2141L15.259 7.39211C15.2643 7.2807 15.1754 7.1875 15.0639 7.1875H1.18608ZM10.625 8.75C10.625 8.40469 10.9047 8.125 11.25 8.125C11.5953 8.125 11.875 8.40469 11.875 8.75V16.875C11.875 17.2203 11.5953 17.5 11.25 17.5C10.9047 17.5 10.625 17.2203 10.625 16.875V8.75ZM7.49999 8.75C7.49999 8.40469 7.77968 8.125 8.12499 8.125C8.4703 8.125 8.74999 8.40469 8.74999 8.75V16.875C8.74999 17.2203 8.4703 17.5 8.12499 17.5C7.77968 17.5 7.49999 17.2203 7.49999 16.875V8.75ZM4.37499 8.75C4.37499 8.40469 4.65468 8.125 4.99999 8.125C5.3453 8.125 5.62499 8.40469 5.62499 8.75V16.875C5.62499 17.2203 5.3453 17.5 4.99999 17.5C4.65468 17.5 4.37499 17.2203 4.37499 16.875V8.75Z" fill="#757897" />
</svg>
  