<svg width="20" height="16" viewBox="0 0 20 16" fill="none" xmlns="http://www.w3.org/2000/svg">
  <path d="M13.0196 3.10745H7.24706L6.09882 1.74274C6.0602 1.69631 6.00231 1.67027 5.94196 1.67215H1.28471C0.573647 1.67733 0 2.25521 0 2.96627V11.36C0.000862745 12.0735 0.579059 12.6517 1.29255 12.6525H13.0196C13.7331 12.6517 14.3113 12.0735 14.3122 11.36V4.4C14.3113 3.68651 13.7331 3.10831 13.0196 3.10745Z" fill="#757897" />
  <path d="M14.7153 1.43539H8.94117L7.79293 0.0706837C7.75431 0.0242523 7.69642 -0.00178689 7.63607 9.54656e-05H2.98039C2.33521 0.00115429 1.78964 0.477782 1.70195 1.11696H5.94823C6.1709 1.11641 6.38231 1.21468 6.52548 1.38519L7.50588 2.55068H13.0196C14.0394 2.55241 14.8657 3.37872 14.8674 4.39853V10.9679C15.514 10.8873 15.9995 10.338 16 9.68637V2.72637C15.9983 2.01653 15.4251 1.44057 14.7153 1.43539Z" fill="#757897" />
  <rect x="2.4" y="8.79999" width="4.8" height="1.6" rx="0.8" fill="white" />
  <circle cx="14.4" cy="9.6" r="5.6" fill="white" />
  <path d="M13.4745 8.89686C13.6422 8.89686 13.7823 8.84795 13.8955 8.77202C13.8014 8.86477 13.6964 8.98793 13.6079 9.15064C13.4825 9.38114 13.4041 9.66472 13.4041 10.0143C13.4041 10.1825 13.4183 10.4399 13.58 10.6487C13.3929 10.83 13.2778 11.0844 13.2778 11.3601C13.2778 11.8781 13.6933 12.3466 14.258 12.3466C14.8142 12.3466 15.2445 11.8868 15.2445 11.3601C15.2445 11.0878 15.132 10.8399 14.9512 10.6607C15.0928 10.4967 15.1244 10.3075 15.1244 10.1786C15.1244 9.99881 15.1311 9.96 15.1403 9.93494C15.1403 9.93481 15.1404 9.93465 15.1404 9.93447C15.1429 9.92751 15.159 9.88222 15.2857 9.78304C15.3784 9.71099 15.5949 9.5401 15.7893 9.29235C15.9826 9.04609 16.1859 8.68349 16.1859 8.23257C16.1859 7.26008 15.3099 6.69005 14.3401 6.69005C13.3045 6.69005 12.5954 7.33434 12.5954 8.03671C12.5954 8.31821 12.7216 8.54877 12.9071 8.69837C13.0788 8.83691 13.2877 8.89686 13.4745 8.89686ZM14.0522 8.633C14.0873 8.59279 14.1144 8.55494 14.1328 8.52857C14.1487 8.50561 14.1575 8.49252 14.1644 8.48222C14.1723 8.47055 14.1777 8.46247 14.1885 8.44767C14.1986 8.43378 14.2046 8.42683 14.2076 8.42376C14.2165 8.42024 14.2488 8.41033 14.3211 8.41033C14.3234 8.41033 14.3256 8.41034 14.3278 8.41037C14.2938 8.44322 14.2515 8.47814 14.1964 8.52094C14.1848 8.52998 14.1715 8.54021 14.1571 8.55126C14.1251 8.57578 14.0879 8.60434 14.0522 8.633ZM14.3913 8.33107C14.3915 8.33102 14.3913 8.33224 14.3902 8.33485C14.3905 8.33241 14.3911 8.33111 14.3913 8.33107ZM14.2098 8.42167C14.2098 8.42172 14.2094 8.42216 14.2085 8.42277L14.2098 8.42167ZM10.1 9.59999C10.1 7.22295 12.0232 5.29999 14.4 5.29999C16.777 5.29999 18.7 7.22316 18.7 9.59999C18.7 11.977 16.7768 13.9 14.4 13.9C12.023 13.9 10.1 11.9768 10.1 9.59999Z" fill="#757897" stroke="#757897" />
</svg>
  