<svg width="20" height="16" viewBox="0 0 20 16" fill="none" xmlns="http://www.w3.org/2000/svg">
  <path d="M16.2745 3.88432H9.05882L7.62353 2.17844C7.57525 2.1204 7.50289 2.08785 7.42745 2.09021H1.60588C0.717059 2.09668 0 2.81903 0 3.70785V14.2C0.00107843 15.0919 0.723823 15.8146 1.61569 15.8157H16.2745C17.1664 15.8146 17.8891 15.0919 17.8902 14.2V5.50001C17.8891 4.60815 17.1664 3.8854 16.2745 3.88432Z" fill="#757897" />
  <path d="M18.3941 1.79424H11.1765L9.74117 0.0883546C9.69288 0.0303154 9.62053 -0.00223361 9.54509 0.000119332H3.72548C2.91901 0.00144286 2.23705 0.597227 2.12744 1.3962H7.43528C7.71362 1.39551 7.97788 1.51835 8.15685 1.73149L9.38234 3.18835H16.2745C17.5493 3.19051 18.5821 4.2234 18.5843 5.49816V13.7099C19.3925 13.6091 19.9994 12.9225 20 12.108V3.40796C19.9979 2.52066 19.2814 1.80071 18.3941 1.79424Z" fill="#757897" />
  <rect x="3" y="11" width="6" height="2" rx="1" fill="white" />
</svg>
  