<svg width="143" height="29" viewBox="0 0 143 29" fill="none" xmlns="http://www.w3.org/2000/svg">
  <g clip-path="url(#clip0_4_186)">
    <path d="M16.5035 5.27538L8.25173 10.5508L16.5035 15.8261L8.25173 21.1015L0 15.7976L8.25173 10.5222L0 5.27538L8.25173 0L16.5035 5.27538ZM8.20905 22.7982L16.4608 17.5228L24.7125 22.7982L16.4608 28.0736L8.20905 22.7982ZM16.5035 15.7976L24.7552 10.5222L16.5035 5.27538L24.7125 0L32.9642 5.27538L24.7125 10.5508L32.9642 15.8261L24.7125 21.1015L16.5035 15.7976Z" fill="#0061FF" />
    <path d="M39.4376 5.27538H46.1101C50.364 5.27538 53.8781 7.74198 53.8781 13.3738V14.5572C53.8781 20.2318 50.5916 22.7839 46.2381 22.7839H39.4376V5.27538ZM43.1651 8.45486V19.5902H46.0247C48.4433 19.5902 50.0652 18.0076 50.0652 14.4859V13.5592C50.0652 10.0375 48.358 8.45486 45.8967 8.45486H43.1651ZM55.8557 8.62596H58.8434L59.3271 11.9195C59.8962 9.68103 61.3473 8.48338 63.9794 8.48338H64.9041V12.2617H63.3676C60.3372 12.2617 59.5974 13.3168 59.5974 16.3109V22.8267H55.9126V8.62596H55.8557ZM65.6439 16.0115V15.6123C65.6439 10.8644 68.6743 8.26951 72.8002 8.26951C77.0114 8.26951 79.9564 10.8644 79.9564 15.6123V16.0115C79.9564 20.6738 77.0968 23.1832 72.8002 23.1832C68.2333 23.1404 65.6439 20.688 65.6439 16.0115ZM76.1862 15.9687V15.6123C76.1862 12.9746 74.8631 11.392 72.7575 11.392C70.6946 11.392 69.3288 12.8463 69.3288 15.6123V15.9687C69.3288 18.5209 70.6519 19.9752 72.7575 19.9752C74.8631 19.9324 76.1862 18.5209 76.1862 15.9687ZM81.8913 8.62596H84.9644L85.32 11.3064C86.0598 9.50994 87.6391 8.26951 89.9723 8.26951C93.5718 8.26951 95.9477 10.8644 95.9477 15.6693V16.0685C95.9477 20.7308 93.3157 23.1974 89.9723 23.1974C87.7387 23.1974 86.2021 22.1851 85.4481 20.5597V27.7314H81.8486L81.8913 8.62596ZM92.206 15.9687V15.655C92.206 12.832 90.7548 11.4347 88.8199 11.4347C86.757 11.4347 85.3912 13.0174 85.3912 15.655V15.9259C85.3912 18.4353 86.7143 20.0179 88.7772 20.0179C90.8971 19.9752 92.206 18.6207 92.206 15.9687ZM101.397 20.2033L101.084 22.7982H97.9253V3.87812H101.525V11.1353C102.321 9.28182 103.901 8.26951 106.134 8.26951C109.52 8.31229 112.024 10.6506 112.024 15.3556V15.7976C112.024 20.5027 109.648 23.1974 106.049 23.1974C103.673 23.1404 102.136 22.0425 101.397 20.2033ZM108.24 15.7976V15.4412C108.24 12.8463 106.831 11.392 104.854 11.392C102.834 11.392 101.425 13.0174 101.425 15.484V15.7976C101.425 18.4353 102.791 19.9752 104.811 19.9752C106.974 19.9752 108.24 18.6207 108.24 15.7976ZM113.604 16.0115V15.6123C113.604 10.8644 116.634 8.26951 120.76 8.26951C124.971 8.26951 127.916 10.8644 127.916 15.6123V16.0115C127.916 20.6738 125.014 23.1832 120.76 23.1832C116.193 23.1404 113.604 20.688 113.604 16.0115ZM124.174 15.9687V15.6123C124.174 12.9746 122.851 11.392 120.746 11.392C118.683 11.392 117.317 12.8463 117.317 15.6123V15.9687C117.317 18.5209 118.64 19.9752 120.746 19.9752C122.865 19.9324 124.174 18.5209 124.174 15.9687ZM132.739 15.4412L127.774 8.62596H132.028L134.887 12.889L137.79 8.62596H142.001L136.964 15.3984L142.271 22.7982H138.103L134.859 18.0931L131.7 22.7982H127.347L132.739 15.4412Z" fill="black" />
  </g>
  <defs>
    <clipPath id="clip0_4_186">
      <rect width="142.271" height="28.0736" fill="white" />
    </clipPath>
  </defs>
</svg>
  