<svg width="20" height="20" viewBox="0 0 20 20" fill="none" xmlns="http://www.w3.org/2000/svg">
  <path d="M18.5286 3.33328C18.5286 4.8291 17.3161 6.04172 15.8203 6.04172C14.3245 6.04172 13.112 4.8291 13.112 3.33328C13.112 1.83762 14.3245 0.625 15.8203 0.625C17.3161 0.625 18.5286 1.83762 18.5286 3.33328Z" fill="#757897" />
  <path d="M15.8203 6.66672C13.9819 6.66672 12.487 5.17166 12.487 3.33328C12.487 1.49506 13.9819 0 15.8203 0C17.6587 0 19.1536 1.49506 19.1536 3.33328C19.1536 5.17166 17.6587 6.66672 15.8203 6.66672ZM15.8203 1.25C14.6712 1.25 13.737 2.18506 13.737 3.33328C13.737 4.48166 14.6712 5.41672 15.8203 5.41672C16.9695 5.41672 17.9036 4.48166 17.9036 3.33328C17.9036 2.18506 16.9695 1.25 15.8203 1.25Z" fill="#757897" />
  <path d="M18.5286 16.6667C18.5286 18.1624 17.3161 19.375 15.8203 19.375C14.3245 19.375 13.112 18.1624 13.112 16.6667C13.112 15.1709 14.3245 13.9583 15.8203 13.9583C17.3161 13.9583 18.5286 15.1709 18.5286 16.6667Z" fill="#757897" />
  <path d="M15.8203 20C13.9819 20 12.487 18.5049 12.487 16.6667C12.487 14.8283 13.9819 13.3333 15.8203 13.3333C17.6587 13.3333 19.1536 14.8283 19.1536 16.6667C19.1536 18.5049 17.6587 20 15.8203 20ZM15.8203 14.5833C14.6712 14.5833 13.737 15.5183 13.737 16.6667C13.737 17.8149 14.6712 18.75 15.8203 18.75C16.9695 18.75 17.9036 17.8149 17.9036 16.6667C17.9036 15.5183 16.9695 14.5833 15.8203 14.5833Z" fill="#757897" />
  <path d="M6.86203 10C6.86203 11.4958 5.64941 12.7083 4.15359 12.7083C2.65793 12.7083 1.44531 11.4958 1.44531 10C1.44531 8.50418 2.65793 7.29172 4.15359 7.29172C5.64941 7.29172 6.86203 8.50418 6.86203 10Z" fill="#757897" />
  <path d="M4.15359 13.3333C2.31537 13.3333 0.820312 11.8384 0.820312 10C0.820312 8.16162 2.31537 6.66672 4.15359 6.66672C5.99197 6.66672 7.48703 8.16162 7.48703 10C7.48703 11.8384 5.99197 13.3333 4.15359 13.3333ZM4.15359 7.91672C3.00446 7.91672 2.07031 8.85162 2.07031 10C2.07031 11.1484 3.00446 12.0833 4.15359 12.0833C5.30289 12.0833 6.23703 11.1484 6.23703 10C6.23703 8.85162 5.30289 7.91672 4.15359 7.91672Z" fill="#757897" />
  <path d="M6.12122 9.60008C5.83115 9.60008 5.54947 9.44917 5.39612 9.17924C5.16861 8.78007 5.30869 8.27088 5.70786 8.04246L13.4402 3.63419C13.8394 3.40501 14.3486 3.54508 14.577 3.94578C14.8045 4.34495 14.6645 4.85414 14.2653 5.08256L6.53275 9.49082C6.40274 9.56498 6.26114 9.60008 6.12122 9.60008Z" fill="#757897" />
  <path d="M13.8528 16.4751C13.7128 16.4751 13.5712 16.44 13.4412 16.3658L5.70862 11.9575C5.30945 11.73 5.16953 11.2209 5.39703 10.8208C5.62363 10.4208 6.13358 10.28 6.53366 10.5092L14.2662 14.9174C14.6654 15.145 14.8053 15.6541 14.5778 16.0542C14.4237 16.3242 14.142 16.4751 13.8528 16.4751Z" fill="#757897" />
</svg>
  