<svg width="20" height="20" viewBox="0 0 20 20" fill="none" xmlns="http://www.w3.org/2000/svg">
  <path d="M19.9478 7.22916C19.8169 6.82494 19.4577 6.53785 19.0327 6.49962L13.2602 5.97645L10.9776 0.643794C10.8093 0.252979 10.426 0 10.0001 0C9.5742 0 9.19089 0.252979 9.02258 0.644708L6.73996 5.97645L0.966512 6.49962C0.542308 6.53876 0.184023 6.82494 0.0523364 7.22916C-0.0793501 7.63338 0.0422653 8.07674 0.363165 8.35622L4.72652 12.1757L3.43987 17.8328C3.34572 18.2487 3.50747 18.6787 3.85324 18.9282C4.03909 19.0622 4.25654 19.1304 4.47581 19.1304C4.66487 19.1304 4.85241 19.0796 5.02072 18.979L10.0001 16.0086L14.9776 18.979C15.3419 19.1978 15.801 19.1778 16.146 18.9282C16.4919 18.6779 16.6535 18.2478 16.5594 17.8328L15.2727 12.1757L19.6361 8.35698C19.957 8.07674 20.0795 7.63414 19.9478 7.22916Z" fill="#757897" />
</svg>
  